<svg height="512pt" viewBox="-81 0 512 512" width="512pt" xmlns="http://www.w3.org/2000/svg"><path d="m303.089844 14.78125c-2.222656-8.695312-10.054688-14.78125-19.03125-14.78125h-217.234375c-8.972657 0-16.808594 6.085938-19.027344 14.78125l-29.554687 115.769531v11.78125h314.402343v-11.78125zm0 0" fill="#00d3b4"/><path d="m332.636719 130.546875h-26.390625l-29.550782-115.761719c-2.222656-8.699218-10.054687-14.785156-19.035156-14.785156h26.402344c8.96875 0 16.800781 6.085938 19.023438 14.785156zm0 0" fill="#00b7a0"/><path d="m19.78125 169.667969v19.019531l22.660156 307.144531c.671875 9.113281 8.265625 16.167969 17.40625 16.167969h231.191406c9.140626 0 16.730469-7.054688 17.40625-16.167969l22.660157-307.144531v-19.019531zm0 0" fill="#00d3b4"/><path d="m331.109375 188.679688-22.671875 307.148437c-.671875 9.113281-8.253906 16.171875-17.402344 16.171875h-26.386718c9.132812 0 16.726562-7.058594 17.398437-16.171875l22.660156-307.148437zm0 0" fill="#00b7a0"/><path d="m342.964844 188.683594h-335.046875c-4.371094 0-7.917969-3.546875-7.917969-7.921875v-42.292969c0-4.371094 3.546875-7.917969 7.917969-7.917969h335.046875c4.375 0 7.917968 3.546875 7.917968 7.917969v42.292969c.003907 4.375-3.542968 7.921875-7.917968 7.921875zm0 0" fill="#e7e7e7"/><path d="m350.886719 138.472656v42.292969c0 4.371094-3.542969 7.914063-7.925781 7.914063h-22.300782c4.382813 0 7.925782-3.542969 7.925782-7.914063v-42.292969c0-4.378906-3.542969-7.925781-7.925782-7.925781h22.300782c4.382812 0 7.925781 3.542969 7.925781 7.925781zm0 0" fill="#cecece"/><path d="m248.390625 85.675781h-145.898437c-2.851563 0-5.164063-2.316406-5.164063-5.167969v-80.507812h156.230469v80.507812c0 2.851563-2.316406 5.167969-5.167969 5.167969zm0 0" fill="#009d7e"/><path d="m248.390625 85.675781h-21.433594v-85.675781h26.601563v80.507812c0 2.851563-2.316406 5.167969-5.167969 5.167969zm0 0" fill="#007259"/></svg>