<svg height="512pt" viewBox="-12 0 512 512" width="512pt" xmlns="http://www.w3.org/2000/svg"><path d="m397.117188 512h-305.835938c-6.265625 0-11.347656-5.078125-11.347656-11.34375v-41.113281h328.527344v41.113281c0 6.265625-5.078126 11.34375-11.34375 11.34375zm0 0" fill="#64dcfc"/><path d="m397.117188 512h-38.445313v-52.460938h49.789063v41.113282c0 6.269531-5.078126 11.347656-11.34375 11.347656zm0 0" fill="#00d1fc"/><path d="m438.699219 73.34375h-389.003907c-10.585937 0-20.078124 6.464844-24.007812 16.292969-18.058594 45.195312-58.085938 177.976562 24.636719 316.414062l30.375 53.488281h326.996093l30.375-53.488281c82.722657-138.4375 42.695313-271.21875 24.636719-316.414062-3.925781-9.828125-13.421875-16.292969-24.007812-16.292969zm0 0" fill="#c9f0ff"/><path d="m438.070312 406.050781-30.375 53.492188h-49.023437l30.378906-53.492188c101.976563-170.65625 17.429688-332.707031 17.429688-332.707031h32.214843c10.585938 0 20.078126 6.460938 24.007813 16.289062 18.0625 45.195313 58.097656 177.972657-24.632813 316.417969zm0 0" fill="#9ae7fd"/><path d="m364.570312 459.542969h-213.773437c-10.265625 0-18.589844-8.324219-18.589844-18.589844v-14.671875c0-10.269531 8.324219-18.589844 18.589844-18.589844h213.773437c10.269532 0 18.589844 8.320313 18.589844 18.589844v14.671875c0 10.265625-8.320312 18.589844-18.589844 18.589844zm0 0" fill="#f5d573"/><path d="m383.15625 426.28125v14.675781c0 10.265625-8.320312 18.585938-18.582031 18.585938h-29.28125c10.265625 0 18.597656-8.320313 18.597656-18.585938v-14.675781c0-10.265625-8.332031-18.585938-18.597656-18.585938h29.28125c10.261719 0 18.582031 8.320313 18.582031 18.585938zm0 0" fill="#f3cc50"/><path d="m402.769531 407.945312h-213.773437c-10.265625 0-18.589844-8.324218-18.589844-18.589843v-14.671875c0-10.265625 8.324219-18.589844 18.589844-18.589844h213.773437c10.269531 0 18.589844 8.324219 18.589844 18.589844v14.671875c0 10.265625-8.324219 18.589843-18.589844 18.589843zm0 0" fill="#f5d573"/><path d="m421.355469 374.683594v14.675781c0 10.265625-8.320313 18.585937-18.582031 18.585937h-29.28125c10.265624 0 18.597656-8.320312 18.597656-18.585937v-14.675781c0-10.261719-8.332032-18.585938-18.597656-18.585938h29.28125c10.261718 0 18.582031 8.324219 18.582031 18.585938zm0 0" fill="#f3cc50"/><path d="m354.902344 355.984375h-213.769532c-10.269531 0-18.589843-8.324219-18.589843-18.589844v-14.671875c0-10.265625 8.320312-18.589844 18.589843-18.589844h213.773438c10.265625 0 18.589844 8.324219 18.589844 18.589844v14.671875c-.003906 10.265625-8.324219 18.589844-18.59375 18.589844zm0 0" fill="#f5d573"/><path d="m373.488281 322.722656v14.675782c0 10.265624-8.320312 18.585937-18.582031 18.585937h-29.28125c10.265625 0 18.597656-8.320313 18.597656-18.585937v-14.675782c0-10.261718-8.332031-18.585937-18.597656-18.585937h29.28125c10.261719 0 18.582031 8.324219 18.582031 18.585937zm0 0" fill="#f3cc50"/><path d="m241.285156 267.269531-199.5625 76.632813c-9.585937 3.679687-20.339844-1.105469-24.019531-10.6875l-5.257813-13.699219c-3.683593-9.582031 1.105469-20.335937 10.6875-24.019531l199.566407-76.632813c9.582031-3.679687 20.335937 1.105469 24.015625 10.691407l5.261718 13.695312c3.679688 9.585938-1.105468 20.339844-10.691406 24.019531zm0 0" fill="#f5d573"/><path d="m246.710938 229.554688 5.261718 13.703124c3.683594 9.582032-1.101562 20.332032-10.683594 24.011719l-27.332031 10.496094c9.582031-3.679687 14.375-14.4375 10.695313-24.019531l-5.261719-13.699219c-3.679687-9.582031-14.441406-14.363281-24.023437-10.683594l27.332031-10.496093c9.582031-3.679688 20.332031 1.105468 24.011719 10.6875zm0 0" fill="#f3cc50"/><path d="m399.636719 86.09375c0 47.550781-38.542969 86.097656-86.09375 86.097656-47.546875 0-86.09375-38.546875-86.09375-86.097656 0-47.546875 38.546875-86.09375 86.09375-86.09375 47.550781 0 86.09375 38.546875 86.09375 86.09375zm0 0" fill="#f5d573"/><path d="m399.640625 86.09375c0 47.550781-38.546875 86.09375-86.09375 86.09375-20.503906 0-39.328125-7.160156-54.113281-19.136719 9.988281 4.054688 20.910156 6.292969 32.355468 6.292969 47.550782 0 86.09375-38.542969 86.09375-86.09375 0-27.046875-12.46875-51.1875-31.980468-66.957031 31.511718 12.785156 53.738281 43.695312 53.738281 79.800781zm0 0" fill="#f3cc50"/><path d="m353.753906 86.09375c0 22.210938-18 40.214844-40.210937 40.214844-22.207031 0-40.210938-18.003906-40.210938-40.214844 0-22.207031 18.003907-40.210938 40.210938-40.210938 22.210937 0 40.210937 18.003907 40.210937 40.210938zm0 0" fill="#f9efef"/><path d="m353.753906 86.097656c0 22.203125-18.003906 40.207032-40.210937 40.207032-13.578125 0-25.589844-6.730469-32.863281-17.050782 4.53125 1.882813 9.503906 2.921875 14.722656 2.921875 21.296875 0 38.558594-17.261719 38.558594-38.558593 0-10.277344-4.023438-19.609376-10.5625-26.511719 17.441406 4.390625 30.355468 20.183593 30.355468 38.992187zm0 0" fill="#efe2dd"/></svg>